<svg width="604" height="414" viewBox="0 0 604 414" fill="none" xmlns="http://www.w3.org/2000/svg">
<g filter="url(#filter0_f_1214_1562)">
<path d="M208 127.199C208 212.913 148.678 282.398 75.5 282.398C97.5028 36.2997 -0.925685 67.9291 -57 127.199C-57 41.4851 2.32227 -28 75.5 -28C148.678 -28 208 41.4851 208 127.199Z" fill="url(#paint0_linear_1214_1562)" fill-opacity="0.53"/>
<path d="M473 127.199C473 212.913 413.678 282.398 340.5 282.398C267.322 282.398 208 212.913 208 127.199C134.822 127.199 208 41.4851 208 127.199C295.928 224.97 473 41.4851 473 127.199Z" fill="url(#paint1_linear_1214_1562)" fill-opacity="0.53"/>
</g>
<defs>
<filter id="filter0_f_1214_1562" x="-187.94" y="-158.94" width="791.879" height="572.278" filterUnits="userSpaceOnUse" color-interpolation-filters="sRGB">
<feFlood flood-opacity="0" result="BackgroundImageFix"/>
<feBlend mode="normal" in="SourceGraphic" in2="BackgroundImageFix" result="shape"/>
<feGaussianBlur stdDeviation="65.4698" result="effect1_foregroundBlur_1214_1562"/>
</filter>
<linearGradient id="paint0_linear_1214_1562" x1="-26.6101" y1="-8.06614" x2="195.088" y2="248.775" gradientUnits="userSpaceOnUse">
<stop stop-color="#672F93"/>
<stop offset="1" stop-color="#B63637"/>
</linearGradient>
<linearGradient id="paint1_linear_1214_1562" x1="-26.6101" y1="-8.06614" x2="195.088" y2="248.775" gradientUnits="userSpaceOnUse">
<stop stop-color="#672F93"/>
<stop offset="1" stop-color="#B63637"/>
</linearGradient>
</defs>
</svg>
