<svg width="87" height="86" viewBox="0 0 87 86" fill="none" xmlns="http://www.w3.org/2000/svg">
<g clip-path="url(#clip0_1212_1318)">
<path d="M39.3734 71.4636L44.7278 58.0699L45.3724 57.7199L40.018 71.1136L39.3734 71.4636ZM41.3071 70.4137L46.6615 57.02L49.2397 55.6201L43.8854 69.0138L41.3071 70.4137ZM44.5299 68.6638L49.8843 55.2701L50.5289 54.9201L45.1745 68.3139L44.5299 68.6638ZM41.7157 75.5773C41.2569 76.0515 40.8127 76.4053 40.383 76.6386C39.982 76.8563 39.7469 76.8832 39.6779 76.7193C39.6149 76.5402 39.6984 76.1631 39.9283 75.588C39.9706 75.482 40.0443 75.3117 40.1494 75.0769L40.7436 73.759L39.9271 74.2023L40.1268 73.7028L40.9647 73.2479L41.4376 72.1913L42.106 71.7395L42.1919 71.6929L42.1738 71.7383C42.127 71.7992 42.0874 71.8563 42.0549 71.9095C42.0081 71.9704 41.9696 72.0387 41.9393 72.1144L41.5448 72.9329L42.748 72.2796L42.5483 72.7791L41.3022 73.4557L40.7114 74.8073C40.6063 75.0421 40.5417 75.1898 40.5175 75.2503C40.3359 75.7043 40.2621 75.9874 40.2958 76.0994C40.3355 76.1963 40.4628 76.1864 40.6777 76.0698C40.8353 75.9842 40.9977 75.8723 41.1652 75.734C41.3183 75.6035 41.508 75.4234 41.7344 75.1939L41.7157 75.5773ZM46.4653 67.613L51.8197 54.2193L52.4642 53.8693L47.1098 67.2631L46.4653 67.613ZM48.399 66.5631L53.7533 53.1694L54.3979 52.8194L49.0435 66.2132L48.399 66.5631ZM50.3326 65.5132L55.687 52.1195L58.2653 50.7196L52.9109 64.1133L50.3326 65.5132ZM49.382 68.6066C49.7687 68.3966 50.0335 68.3654 50.1764 68.5129L49.7371 69.107L49.6793 69.2094L49.633 69.199C49.6428 69.1463 49.6467 69.1086 49.6444 69.0861C49.6339 69.0563 49.602 69.0381 49.5485 69.0316C49.4559 69.0108 49.3165 69.0509 49.1303 69.152C48.9441 69.2531 48.7438 69.4033 48.5296 69.6026C48.3214 69.7867 48.1249 70.0119 47.9399 70.2783C47.7406 70.5524 47.5804 70.8407 47.4594 71.1434L46.6427 73.1865L46.0626 73.5015L47.6054 69.6423L48.2069 69.3157L47.9041 70.0311C48.1012 69.7345 48.3374 69.4522 48.6128 69.1842C48.8821 68.9313 49.1385 68.7388 49.382 68.6066ZM53.5571 63.7625L58.9115 50.3687L59.5561 50.0188L54.2017 63.4125L53.5571 63.7625ZM55.4908 62.7126L60.8452 49.3188L61.4897 48.9689L56.1353 62.3626L55.4908 62.7126ZM56.7799 62.0126L62.1343 48.6189L63.4234 47.919L58.069 61.3127L56.7799 62.0126ZM55.7433 65.1527C56.259 64.8727 56.5954 64.8026 56.7526 64.9424C56.9098 65.0822 56.8492 65.5001 56.5709 66.1963L55.7541 68.2394L55.1311 68.5777L55.367 67.9875C54.9707 68.5582 54.4645 69.0107 53.8486 69.3451C53.4475 69.5629 53.1718 69.6356 53.0212 69.5633C52.8707 69.491 52.859 69.2959 52.986 68.9781C53.0949 68.7057 53.2746 68.4244 53.5252 68.1344C53.7614 67.8521 54.0469 67.5726 54.3818 67.296C54.6963 67.0423 55.0254 66.8221 55.3692 66.6355C55.67 66.4722 55.9361 66.3395 56.1675 66.2376C56.3083 65.8294 56.3218 65.585 56.2082 65.5045C56.0946 65.424 55.8588 65.481 55.5007 65.6754C55.3145 65.7765 55.1275 65.9077 54.9397 66.0689C54.7375 66.2379 54.5376 66.4294 54.3399 66.6434L54.2149 66.4091C54.7039 65.8592 55.2133 65.4404 55.7433 65.1527ZM54.0946 68.8561C54.4956 68.6383 54.8622 68.3386 55.1942 67.9569C55.5202 67.5903 55.7811 67.1761 55.9769 66.7143C55.7516 66.8011 55.5028 66.9184 55.2307 67.0662C54.8296 67.2839 54.4771 67.5346 54.1731 67.8181C53.8894 68.0788 53.6902 68.3529 53.5752 68.6404C53.4058 69.0642 53.5789 69.1361 54.0946 68.8561ZM60.6489 59.9119L66.0033 46.5182L66.6479 46.1682L61.2935 59.5619L60.6489 59.9119ZM63.8717 58.1621L69.2261 44.7684L69.8707 44.4184L64.5163 57.8121L63.8717 58.1621ZM65.1609 57.4621L70.5153 44.0684L71.8044 43.3685L66.45 56.7622L65.1609 57.4621ZM61.542 65.1679C61.1839 65.3624 60.9021 65.4502 60.6965 65.4315C60.497 65.3977 60.3789 65.2722 60.3424 65.055C60.3058 64.8379 60.3662 64.5326 60.5235 64.1391C60.6747 63.7607 60.8896 63.3775 61.1682 62.9892C61.4468 62.601 61.7584 62.2422 62.1032 61.9128C62.4419 61.5986 62.7903 61.3442 63.1484 61.1498C63.4348 60.9943 63.6756 60.9109 63.8707 60.8998C64.0515 60.8964 64.1753 60.9655 64.2421 61.107L63.7226 61.6912L63.6614 61.7599L63.6366 61.7379C63.6548 61.6925 63.6586 61.6548 63.6481 61.625C63.6459 61.6025 63.6282 61.5765 63.5951 61.5471C63.5229 61.5034 63.4314 61.4938 63.3206 61.5184C63.2016 61.5356 63.0561 61.5909 62.8842 61.6842C62.6694 61.8009 62.4518 61.9664 62.2315 62.1808C61.9969 62.403 61.7841 62.6548 61.5931 62.9363C61.3938 63.2104 61.2367 63.4912 61.1217 63.7787C61.0068 64.0663 60.9582 64.3 60.976 64.4799C60.9998 64.6447 61.0806 64.7371 61.2184 64.7571C61.3645 64.7844 61.5521 64.7359 61.7813 64.6114C62.1537 64.4092 62.5395 64.0753 62.9387 63.6098L63.0977 63.8434C62.5762 64.4464 62.0577 64.888 61.542 65.1679ZM67.7408 56.0614L73.0952 42.6676L73.7397 42.3177L68.3853 55.7114L67.7408 56.0614ZM69.6745 55.0115L75.0289 41.6177L77.6071 40.2179L72.2527 53.6116L69.6745 55.0115ZM72.8973 53.2616L78.2517 39.8679L78.8962 39.5179L73.5418 52.9116L72.8973 53.2616ZM70.083 60.1751C69.6243 60.6493 69.1801 61.003 68.7504 61.2363C68.3493 61.4541 68.1143 61.481 68.0452 61.3171C67.9823 61.138 68.0657 60.7609 68.2956 60.1858C68.338 60.0798 68.4117 59.9095 68.5168 59.6747L69.1109 58.3567L68.2945 58.8L68.4941 58.3006L69.3321 57.8457L69.8049 56.7891L70.4734 56.3373L70.5593 56.2906L70.5412 56.336C70.4944 56.397 70.4547 56.4541 70.4222 56.5072C70.3754 56.5682 70.3369 56.6365 70.3067 56.7122L69.9122 57.5307L71.1154 56.8774L70.9157 57.3768L69.6695 58.0534L69.0787 59.4051C68.9736 59.6399 68.909 59.7876 68.8848 59.8481C68.7033 60.3021 68.6294 60.5852 68.6631 60.6972C68.7029 60.7941 68.8302 60.7842 69.045 60.6676C69.2026 60.582 69.3651 60.4701 69.5325 60.3318C69.6857 60.2012 69.8754 60.0212 70.1017 59.7917L70.083 60.1751ZM74.8326 52.2108L80.187 38.8171L80.8316 38.4671L75.4772 51.8608L74.8326 52.2108ZM77.4109 50.8109L82.7653 37.4172L85.3435 36.0173L79.9891 49.4111L77.4109 50.8109ZM80.6337 49.0611L85.9881 35.6674L86.6326 35.3174L81.2782 48.7111L80.6337 49.0611ZM75.4555 57.5958C75.126 57.7746 74.8657 57.8508 74.6744 57.8244C74.4975 57.7901 74.3979 57.6605 74.3756 57.4356C74.3391 57.2184 74.3995 56.9131 74.5568 56.5196C74.7141 56.1262 74.932 55.7353 75.2106 55.3471C75.4748 54.9666 75.7619 54.627 76.072 54.3284C76.4024 54.0068 76.7324 53.7565 77.0618 53.5777C77.3912 53.3988 77.6414 53.3341 77.8123 53.3834C78.0036 53.4099 78.1103 53.5356 78.1326 53.7606C78.1548 53.9855 78.0873 54.2947 77.93 54.6882C77.7727 55.0816 77.5619 55.4686 77.2976 55.8491C77.0334 56.2295 76.7391 56.573 76.4147 56.8794C76.1047 57.1781 75.7849 57.4169 75.4555 57.5958ZM75.6551 57.0963C75.8557 56.9875 76.0691 56.8183 76.2954 56.5887C76.5014 56.3821 76.6999 56.1381 76.8909 55.8566C77.0736 55.5678 77.2225 55.2796 77.3374 54.9921C77.5129 54.5532 77.5548 54.252 77.4632 54.0884C77.3716 53.9249 77.1682 53.9287 76.8531 54.0998C76.5379 54.2709 76.2257 54.5471 75.9162 54.9284C75.6068 55.3097 75.3644 55.7198 75.1889 56.1586C75.074 56.4462 75.011 56.6877 75.0002 56.8832C75.0097 57.0558 75.069 57.1598 75.1782 57.1953C75.2813 57.246 75.4403 57.213 75.6551 57.0963Z" fill="#353535"/>
<g clip-path="url(#clip1_1212_1318)">
<path d="M3.56858 37.6149L8.98553 24.2464L9.51447 24.7545L4.09752 38.123L3.56858 37.6149ZM5.15541 39.1392L10.5724 25.7706L11.1013 26.2787L5.68435 39.6473L5.15541 39.1392ZM7.80013 41.6796L13.2171 28.3111L14.275 29.3273L8.85802 42.6958L7.80013 41.6796ZM3.61801 47.8297C3.44169 47.6604 3.29856 47.4494 3.1886 47.1969C3.07864 46.9444 3.00749 46.6767 2.97515 46.3938L2.59685 46.7229L2.29711 46.435L4.56488 40.8383L5.11146 41.3634L5.0931 41.4087C5.05123 41.4314 5.01829 41.4522 4.9943 41.4712C4.96418 41.5052 4.93076 41.5675 4.89403 41.6582L4.09526 43.6295C4.28674 43.5196 4.48925 43.4833 4.70277 43.5205C4.9163 43.5577 5.10535 43.6554 5.26991 43.8134C5.64604 44.1748 5.87845 44.6288 5.96712 45.1757C6.04968 45.7376 5.96241 46.3358 5.70534 46.9703C5.52783 47.4083 5.31604 47.7295 5.06996 47.9338C4.82388 48.1382 4.57032 48.2199 4.30929 48.179C4.06001 48.1494 3.82959 48.033 3.61801 47.8297ZM3.78547 47.2351C4.02055 47.4609 4.26346 47.5264 4.5142 47.4315C4.75882 47.3517 4.98519 47.055 5.1933 46.5414C5.39528 46.0429 5.47472 45.6051 5.4316 45.2279C5.38285 44.8243 5.23505 44.504 4.98821 44.2668C4.74137 44.0297 4.4834 43.9813 4.2143 44.1215C3.95132 44.2467 3.72801 44.5358 3.54439 44.989C3.15265 45.9557 3.23301 46.7044 3.78547 47.2351ZM9.38834 43.2052L14.8053 29.8367L15.3342 30.3448L9.91728 43.7133L9.38834 43.2052ZM10.4462 44.2214L15.8632 30.8528L16.9211 31.869L11.5041 45.2376L10.4462 44.2214ZM12.562 46.2537L17.979 32.8852L18.5079 33.3933L13.0909 46.7618L12.562 46.2537ZM9.47303 53.4539C9.02637 53.0248 8.74413 52.5124 8.62632 51.9166C8.49675 51.3095 8.5605 50.6887 8.81757 50.0542C8.98896 49.6313 9.20357 49.3233 9.4614 49.1303C9.70136 48.9411 9.95774 48.8725 10.2305 48.9247C10.4977 48.9505 10.7605 49.0876 11.0191 49.336C11.3835 49.686 11.6162 50.1193 11.7171 50.636C11.8119 51.1677 11.7369 51.7357 11.492 52.3399C11.4675 52.4004 11.4308 52.491 11.3819 52.6118L9.24845 50.5625C9.07046 51.0421 9.02653 51.4931 9.11666 51.9154C9.2068 52.3378 9.3988 52.6901 9.69265 52.9723C10.01 53.2772 10.3268 53.3821 10.6429 53.287L10.7696 53.8809C10.3519 54.0253 9.9197 53.8829 9.47303 53.4539ZM11.0986 51.6787C11.2455 51.3162 11.2913 50.9614 11.2359 50.6145C11.1806 50.2675 11.0353 49.9811 10.8003 49.7553C10.5887 49.5521 10.3608 49.4696 10.1167 49.5079C9.87256 49.5462 9.65329 49.7448 9.45889 50.1037L11.0986 51.6787ZM15.2081 48.7955L20.6251 35.427L21.6829 36.4431L16.266 49.8117L15.2081 48.7955ZM16.7949 50.3198L22.2119 36.9512L23.2698 37.9674L17.8528 51.3359L16.7949 50.3198ZM18.9107 52.3521L24.3277 38.9836L25.3855 39.9997L19.9686 53.3683L18.9107 52.3521ZM21.0279 54.3858L26.4448 41.0172L26.9738 41.5253L21.5568 54.8939L21.0279 54.3858ZM22.6147 55.91L28.0316 42.5415L28.5606 43.0496L23.1436 56.4181L22.6147 55.91ZM23.6726 56.9262L29.0895 43.5577L30.1474 44.5739L24.7305 57.9424L23.6726 56.9262ZM22.5705 60.4319C22.9937 60.8384 23.2588 61.2924 23.3658 61.7939C23.4728 62.2954 23.3856 62.8936 23.104 63.5885L22.2777 65.6278L21.7664 65.1366L22.0051 64.5475C21.6452 64.8313 21.2125 64.7304 20.707 64.2449C20.3779 63.9288 20.1591 63.5822 20.0506 63.2052C19.9421 62.8282 19.9521 62.481 20.0807 62.1638C20.1908 61.8919 20.3562 61.7255 20.5769 61.6646C20.7857 61.5925 21.0322 61.6089 21.3162 61.7138C21.5824 61.8226 21.8566 62.0125 22.1387 62.2835C22.3855 62.5206 22.6027 62.7502 22.7903 62.9724C22.9382 62.5268 22.9724 62.14 22.8931 61.812C22.8137 61.4839 22.6271 61.1788 22.3333 60.8965C22.1805 60.7497 22.0241 60.652 21.8642 60.6033C21.6925 60.5434 21.5204 60.5249 21.3478 60.5479L21.2746 59.9426C21.7036 59.851 22.1356 60.0141 22.5705 60.4319ZM20.9436 63.8426C21.2727 64.1587 21.5833 64.2787 21.8754 64.2026C22.1614 64.1415 22.4021 63.8901 22.5975 63.4482C22.416 63.2109 22.2136 62.985 21.9903 62.7705C21.6612 62.4544 21.3661 62.2759 21.1051 62.235C20.8619 62.1903 20.6822 62.3114 20.5659 62.5984C20.3945 63.0214 20.5204 63.4361 20.9436 63.8426ZM26.8476 59.9761L32.2646 46.6075L32.7935 47.1156L27.3766 60.4842L26.8476 59.9761ZM28.4345 61.5003L33.8514 48.1318L34.3804 48.6399L28.9634 62.0084L28.4345 61.5003ZM31.0792 64.0408L36.4961 50.6722L37.554 51.6884L32.1371 65.0569L31.0792 64.0408ZM26.8971 70.1909C26.7207 70.0215 26.5776 69.8106 26.4676 69.5581C26.3577 69.3055 26.2865 69.0378 26.2542 68.7549L25.8759 69.0841L25.5762 68.7962L27.8439 63.1995L28.3905 63.7245L28.3721 63.7698C28.3303 63.7926 28.2973 63.8134 28.2733 63.8323C28.2432 63.8663 28.2098 63.9287 28.1731 64.0193L27.3743 65.9906C27.5658 65.8807 27.7683 65.8444 27.9818 65.8817C28.1954 65.9189 28.3844 66.0165 28.549 66.1746C28.9251 66.5359 29.1575 66.99 29.2462 67.5368C29.3287 68.0988 29.2415 68.697 28.9844 69.3314C28.8069 69.7695 28.5951 70.0907 28.349 70.295C28.1029 70.4993 27.8494 70.581 27.5883 70.5401C27.3391 70.5105 27.1086 70.3941 26.8971 70.1909ZM27.0645 69.5963C27.2996 69.8221 27.5425 69.8875 27.7933 69.7926C28.0379 69.7128 28.2642 69.4161 28.4723 68.9025C28.6743 68.404 28.7538 67.9662 28.7106 67.589C28.6619 67.1855 28.5141 66.8651 28.2673 66.628C28.0204 66.3909 27.7624 66.3425 27.4933 66.4827C27.2304 66.6078 27.0071 66.8969 26.8234 67.3501C26.4317 68.3169 26.5121 69.0656 27.0645 69.5963ZM32.6674 65.5664L38.0843 52.1978L38.6133 52.7059L33.1963 66.0744L32.6674 65.5664ZM33.7253 66.5825L39.1422 53.214L41.258 55.2463L35.8411 68.6149L33.7253 66.5825ZM36.8989 69.6311L42.3159 56.2625L42.8448 56.7706L37.4279 70.1392L36.8989 69.6311ZM32.611 75.6796C32.1056 75.194 31.7651 74.5837 31.5895 73.8484L32.0835 73.5359L32.1555 73.4792L32.19 73.5753C32.1839 73.5904 32.1747 73.6131 32.1624 73.6433C32.1558 73.6999 32.1523 73.7489 32.1518 73.7904C32.1569 73.8583 32.1621 73.9262 32.1672 73.9941C32.2241 74.2166 32.3018 74.4277 32.4005 74.6274C32.5053 74.8121 32.6518 74.9947 32.8398 75.1753C33.0749 75.4012 33.2844 75.5289 33.4683 75.5587C33.6405 75.5772 33.7663 75.4882 33.8459 75.2918C33.9132 75.1257 33.9154 74.9389 33.8525 74.7315C33.7895 74.5242 33.6325 74.2265 33.3815 73.8385C32.7455 72.8289 32.5316 72.0673 32.7397 71.5537C32.8621 71.2516 33.0569 71.1134 33.3241 71.1392C33.5856 71.1386 33.8927 71.3076 34.2453 71.6463C34.5156 71.906 34.7234 72.1791 34.8687 72.4655C35.02 72.7367 35.1292 73.0515 35.1963 73.4098L34.749 73.5467L34.6862 73.5808L34.6693 73.5016C34.6938 73.4411 34.7004 73.3845 34.6891 73.3317C34.6957 73.2751 34.6847 73.2016 34.656 73.1111C34.5931 72.9038 34.512 72.721 34.4128 72.5627C34.308 72.3781 34.1968 72.2293 34.0793 72.1164C33.8912 71.9358 33.7142 71.8287 33.5482 71.7951C33.4 71.7577 33.2953 71.8146 33.2341 71.9656C33.1729 72.1167 33.1855 72.3072 33.272 72.5371C33.3406 72.7709 33.5091 73.1006 33.7775 73.5263C34.0924 74.0387 34.2926 74.4513 34.3781 74.7643C34.4753 75.0885 34.4658 75.3941 34.3495 75.6811C34.2087 76.0286 33.9866 76.2139 33.6832 76.2373C33.3798 76.2606 33.0224 76.0747 32.611 75.6796Z" fill="#353535"/>
</g>
<path d="M9.19336 24.4856L9.85307 24.1493L45.1498 58.2898L44.5044 58.6528L9.19336 24.4856Z" fill="#353535"/>
<path d="M14.3506 21.6924L15.0103 21.3431L50.307 55.4966L49.6617 55.8596L14.3506 21.6924Z" fill="#353535"/>
<path d="M16.291 20.6316L16.9507 20.2953L52.2474 54.4488L51.602 54.7989L16.291 20.6316Z" fill="#353535"/>
<path d="M18.2223 19.596L18.882 19.2338L54.1787 53.3873L53.5334 53.7632L18.2223 19.596Z" fill="#353535"/>
<path d="M23.3577 16.789L24.0174 16.4527L59.3141 50.6062L58.6687 50.9563L23.3577 16.789Z" fill="#353535"/>
<path d="M25.3055 15.7412L25.9652 15.4049L61.262 49.5584L60.6166 49.9085L25.3055 15.7412Z" fill="#353535"/>
<path d="M25.3055 15.7412L25.9652 15.4049L61.262 49.5584L60.6166 49.9085L25.3055 15.7412Z" fill="#353535"/>
<path d="M30.4539 12.9472L31.1136 12.6108L66.4232 46.7514L65.7649 47.1144L30.4539 12.9472Z" fill="#353535"/>
<path d="M33.7265 11.2138L34.3474 10.8387L69.6441 44.9922L69.0376 45.3811L33.7265 11.2138Z" fill="#353535"/>
<path d="M37.5608 9.11824L38.2205 8.74311L73.5172 42.8966L72.8719 43.2855L37.5608 9.11824Z" fill="#353535"/>
<path d="M42.7425 6.31127L43.3634 5.94907L78.6601 40.1026L78.0536 40.4785L42.7425 6.31127Z" fill="#353535"/>
<path d="M39.4494 8.09634L42.0623 6.68638L77.359 40.8399L74.7604 42.2636L39.4494 8.09634Z" fill="#353535"/>
<path d="M42.7425 6.31127L43.3634 5.94907L78.6601 40.1026L78.0536 40.4785L42.7425 6.31127Z" fill="#353535"/>
<path d="M20.1626 18.5223L22.7497 17.1382L58.0464 51.2917L55.4737 52.6896L20.1626 18.5223Z" fill="#353535"/>
<path d="M11.1337 23.4378L13.8372 22.002L49.0045 56.1943L46.4447 57.6051L11.1337 23.4378Z" fill="#353535"/>
<path d="M26.5657 15.0556L27.907 14.3709L63.1907 48.4985L61.8767 49.2358L26.5657 15.0556Z" fill="#353535"/>
<path d="M34.9867 10.4894L36.2762 9.79176L71.5729 43.9452L70.2977 44.6567L34.9867 10.4894Z" fill="#353535"/>
<path d="M44.657 5.2635L45.3167 4.92717L80.6134 39.0807L79.968 39.4308L44.657 5.2635Z" fill="#353535"/>
<path d="M44.657 5.2635L45.3167 4.92717L80.6134 39.0807L79.968 39.4308L44.657 5.2635Z" fill="#353535"/>
<path d="M47.5284 3.93744L50.0013 2.76513L85.072 36.6952L82.5987 38.1105L47.5284 3.93744Z" fill="#353535"/>
<path d="M47.5284 3.93744L50.0013 2.76513L85.072 36.6952L82.5987 38.1105L47.5284 3.93744Z" fill="#353535"/>
<path d="M50.722 2.47686L51.4427 2.04445L86.4236 36.0165L85.7783 36.3666L50.722 2.47686Z" fill="#353535"/>
<path d="M50.722 2.47686L51.4427 2.04445L86.4236 36.0165L85.7783 36.3666L50.722 2.47686Z" fill="#353535"/>
</g>
<defs>
<clipPath id="clip0_1212_1318">
<rect width="86" height="86" fill="white" transform="translate(0.5)"/>
</clipPath>
<clipPath id="clip1_1212_1318">
<rect width="48.508" height="29.3717" fill="white" transform="matrix(0.721182 0.692746 -0.375542 0.926805 9.53125 22.8999)"/>
</clipPath>
</defs>
</svg>
