<svg width="24" height="24" viewBox="0 0 24 24" fill="none" xmlns="http://www.w3.org/2000/svg">
<g clip-path="url(#clip0_1245_1753)">
<path d="M12.0004 23.6531C17.1761 23.6531 21.3718 19.4573 21.3718 14.2816C21.3718 9.1059 17.1761 4.91016 12.0004 4.91016C6.82465 4.91016 2.62891 9.1059 2.62891 14.2816C2.62891 19.4573 6.82465 23.6531 12.0004 23.6531Z" fill="#F7B239"/>
<path d="M7.07665 19.2052C3.70543 15.834 3.4398 10.5334 6.27946 6.85791C5.96489 7.10091 5.66225 7.36654 5.37369 7.65507C1.71398 11.3148 1.71398 17.2483 5.37369 20.9081C9.0334 24.5678 14.967 24.5678 18.6267 20.9081C18.9152 20.6196 19.1808 20.3168 19.4239 20.0023C15.7484 22.842 10.4478 22.5764 7.07665 19.2052Z" fill="#E09B2D"/>
<path d="M11.9999 24.0002C6.64101 24.0002 2.28125 19.6405 2.28125 14.2817C2.28125 8.92274 6.64101 4.56299 11.9999 4.56299C17.3588 4.56299 21.7185 8.92274 21.7185 14.2817C21.7185 19.6405 17.3588 24.0002 11.9999 24.0002ZM11.9999 5.25768C7.02409 5.25768 2.97594 9.30579 2.97594 14.2817C2.97594 19.2575 7.02406 23.3056 11.9999 23.3056C16.9757 23.3056 21.0238 19.2574 21.0238 14.2817C21.0238 9.30583 16.9757 5.25768 11.9999 5.25768Z" fill="black"/>
<path d="M11.9999 16.5008C10.4241 16.5008 8.84825 15.901 7.64861 14.7013C7.51296 14.5657 7.51296 14.3458 7.64861 14.2101C7.78425 14.0745 8.00421 14.0745 8.13982 14.2101C10.2683 16.3386 13.7315 16.3385 15.8599 14.2101C15.9956 14.0745 16.2155 14.0745 16.3511 14.2101C16.4868 14.3458 16.4868 14.5657 16.3511 14.7013C15.1515 15.901 13.5757 16.5008 11.9999 16.5008Z" fill="black"/>
<path d="M12.0004 18.0071C11.4403 18.0071 10.8802 17.9308 10.3357 17.7781C10.151 17.7263 10.0432 17.5346 10.095 17.3499C10.1468 17.1652 10.3387 17.0574 10.5232 17.1092C11.4896 17.3801 12.5112 17.3801 13.4776 17.1092C13.6623 17.0573 13.854 17.1652 13.9058 17.3499C13.9576 17.5346 13.8499 17.7263 13.6651 17.7781C13.1205 17.9308 12.5604 18.0071 12.0004 18.0071Z" fill="#E09B2D"/>
<path d="M9.61295 12.2562C9.42112 12.2562 9.26558 12.1007 9.26558 11.9088C9.26558 10.9766 8.50715 10.2181 7.57488 10.2181C6.64262 10.2181 5.88418 10.9766 5.88418 11.9088C5.88418 12.1007 5.72865 12.2562 5.53682 12.2562C5.34499 12.2562 5.18945 12.1007 5.18945 11.9088C5.18945 10.5935 6.25953 9.52344 7.57485 9.52344C8.89016 9.52344 9.96024 10.5935 9.96024 11.9088C9.96031 12.1007 9.80478 12.2562 9.61295 12.2562Z" fill="black"/>
<path d="M18.4626 12.2562C18.2707 12.2562 18.1152 12.1007 18.1152 11.9088C18.1152 10.9766 17.3568 10.2181 16.4245 10.2181C15.4922 10.2181 14.7338 10.9766 14.7338 11.9088C14.7338 12.1007 14.5783 12.2562 14.3864 12.2562C14.1946 12.2562 14.0391 12.1007 14.0391 11.9088C14.0391 10.5935 15.1091 9.52344 16.4245 9.52344C17.7398 9.52344 18.8098 10.5935 18.8098 11.9088C18.8099 12.1007 18.6544 12.2562 18.4626 12.2562Z" fill="black"/>
</g>
<g clip-path="url(#clip1_1245_1753)">
<path d="M5.49528 7.36901C5.58705 7.33159 5.68089 7.2906 5.77699 7.24863C5.89998 7.19491 6.02668 7.13958 6.15745 7.08804C7.93258 6.38979 9.87271 6.09027 11.87 6.0912C13.5794 6.09213 15.3361 6.36939 16.9085 6.82562C17.0358 6.86271 18.1768 7.21694 18.2965 7.32265C18.1783 7.30619 17.9989 7.25063 17.8313 7.19868C17.7344 7.16867 17.6414 7.13985 17.5664 7.1205C13.9956 6.20433 10.4885 6.02722 6.87677 6.95544L5.49528 7.36994V7.36901Z" fill="#370063"/>
<path fill-rule="evenodd" clip-rule="evenodd" d="M5.77699 7.24863C5.68089 7.2906 5.58705 7.33159 5.49528 7.36901V7.36994L6.87677 6.95544C10.4885 6.02722 13.9956 6.20433 17.5664 7.1205C17.6414 7.13985 17.7344 7.16867 17.8313 7.19868C17.9989 7.25063 18.1783 7.30619 18.2965 7.32265C18.1768 7.21694 17.0358 6.86271 16.9085 6.82562C15.3361 6.36939 13.5794 6.09213 11.87 6.0912C9.87271 6.09027 7.93258 6.38979 6.15745 7.08804C6.02668 7.13958 5.89998 7.19491 5.77699 7.24863ZM20.1353 9.34322L20.1557 9.35527V9.35342L20.3089 10.1175L20.3095 10.1215C20.3482 10.3794 20.3934 10.6806 20.2604 10.8937C20.1245 11.1106 19.8344 11.1811 19.5098 11.093C19.2197 11.0142 19.0525 10.8686 18.8918 10.7286C18.3493 10.2547 17.7476 9.93483 17.0487 9.62604C16.9752 9.59347 16.8591 9.55209 16.7397 9.50957C16.577 9.45163 16.4084 9.39157 16.3337 9.34878L16.1989 9.32375L15.7675 9.18558C15.1847 9.03523 15.0741 8.99188 14.9596 8.96468C14.8412 8.93653 14.7186 8.92569 14.0636 8.83135L14.0496 8.82579C12.5095 8.66259 11.788 8.59026 10.1876 8.79333C8.27445 9.03536 6.51118 9.58895 5.14154 10.6934C5.10689 10.7212 5.07456 10.7488 5.04282 10.7759C4.90865 10.8903 4.78505 10.9957 4.54085 11.0745C4.23025 11.1746 3.92613 11.1385 3.77083 10.9474C3.4322 10.5329 3.89809 9.12438 4.06309 8.70895C4.26743 8.19317 4.39491 7.99312 4.65913 7.57849C4.6766 7.55107 4.69467 7.52271 4.7134 7.49327C4.76057 7.41869 4.72937 7.12487 4.70539 6.89902C4.69538 6.80475 4.68663 6.72231 4.68536 6.67261C4.65408 5.37904 4.91938 4.02983 5.57077 2.97642C6.06793 2.17153 6.71393 1.57621 7.57669 1.13482C8.56563 0.629445 9.52545 0.468096 10.8908 0.392985L11.0669 0.287171C11.1186 0.253009 11.1925 0.21902 11.3038 0.18702C11.7223 0.0673989 12.2496 0.0636897 12.6724 0.182383C12.7907 0.215756 12.865 0.244552 12.921 0.282354L13.0951 0.395767C15.5033 0.423586 17.1846 1.28968 18.1692 2.60272C18.6837 3.28799 19.005 4.09845 19.1819 5.01276C19.2768 5.5033 19.3135 6.01424 19.3081 6.53074C19.3048 6.79409 19.293 7.05559 19.2596 7.30781C19.2391 7.46257 19.3064 7.54962 19.3826 7.64804C19.4347 7.71532 19.4909 7.78791 19.5259 7.89108L19.5594 7.92724C19.5823 7.99271 19.625 8.06795 19.6664 8.14098C19.6913 8.18483 19.7157 8.22789 19.7352 8.26756C19.7471 8.29229 19.7602 8.31884 19.7738 8.3463C19.8151 8.43002 19.8607 8.52226 19.8915 8.59767C19.9584 8.76181 20.1223 9.18372 20.1353 9.34322Z" fill="#672F93"/>
<path d="M13.0951 0.395767C12.9819 0.212163 12.9388 0.160235 12.6724 0.0851239C12.2496 -0.0335696 11.7223 -0.0298604 11.3038 0.0897604C10.9555 0.189908 10.9738 0.309529 10.8908 0.392985L11.0669 0.287171C11.1186 0.253009 11.1925 0.21902 11.3038 0.18702C11.7223 0.0673989 12.2496 0.0636897 12.6724 0.182383C12.7907 0.215756 12.865 0.244552 12.921 0.282354L13.0951 0.395767Z" fill="#370063"/>
</g>
<path d="M11.013 5.55192C10.8997 5.55192 10.7911 5.53619 10.6873 5.50472C10.5834 5.47325 10.489 5.43077 10.404 5.37727C10.3222 5.32378 10.253 5.26241 10.1963 5.19318C10.1428 5.1208 10.1067 5.04685 10.0878 4.97133L10.253 4.91469L10.2105 5.49528H9.50718V2.00699H10.2671V3.59301L10.1114 3.53636C10.1303 3.45455 10.1665 3.37902 10.2199 3.30979C10.2734 3.23741 10.3411 3.17448 10.4229 3.12098C10.5047 3.06434 10.5944 3.02028 10.692 2.98881C10.7895 2.95734 10.8902 2.94161 10.9941 2.94161C11.2112 2.94161 11.4032 2.99825 11.5699 3.11154C11.7399 3.22168 11.8736 3.37587 11.9712 3.57413C12.0687 3.76923 12.1175 3.99266 12.1175 4.24441C12.1175 4.4993 12.0687 4.72587 11.9712 4.92413C11.8768 5.11923 11.7462 5.27343 11.5794 5.38671C11.4126 5.49685 11.2238 5.55192 11.013 5.55192ZM10.8147 4.91469C10.928 4.91469 11.0271 4.88636 11.1121 4.82972C11.197 4.77308 11.2616 4.69598 11.3056 4.59843C11.3528 4.49773 11.3764 4.37972 11.3764 4.24441C11.3764 4.11224 11.3528 3.9958 11.3056 3.8951C11.2616 3.79441 11.197 3.71731 11.1121 3.66381C11.0271 3.61031 10.928 3.58357 10.8147 3.58357C10.6983 3.58357 10.5976 3.61031 10.5126 3.66381C10.4276 3.71731 10.3616 3.79441 10.3144 3.8951C10.2671 3.9958 10.2435 4.11224 10.2435 4.24441C10.2435 4.37972 10.2671 4.49773 10.3144 4.59843C10.3616 4.69598 10.4276 4.77308 10.5126 4.82972C10.5976 4.88636 10.6983 4.91469 10.8147 4.91469ZM13.8083 5.5472C13.5314 5.5472 13.2907 5.49213 13.0861 5.38199C12.8816 5.26871 12.7227 5.11608 12.6094 4.92413C12.4961 4.72902 12.4394 4.50717 12.4394 4.25857C12.4394 4.06661 12.4709 3.89038 12.5338 3.72989C12.5968 3.56941 12.6849 3.43094 12.7982 3.31451C12.9115 3.19493 13.0452 3.10367 13.1994 3.04073C13.3567 2.97465 13.5282 2.94161 13.7139 2.94161C13.8901 2.94161 14.0506 2.97308 14.1954 3.03601C14.3433 3.09895 14.4707 3.18706 14.5777 3.30035C14.6847 3.41364 14.7665 3.54738 14.8232 3.70157C14.8798 3.85577 14.905 4.02413 14.8987 4.20664L14.894 4.40962H12.8973L12.7887 3.98479H14.2803L14.2001 4.07448V3.98007C14.1938 3.9014 14.1686 3.83217 14.1246 3.77238C14.0837 3.70944 14.0286 3.66066 13.9594 3.62605C13.8901 3.59143 13.8115 3.57413 13.7234 3.57413C13.6006 3.57413 13.4952 3.5993 13.4071 3.64965C13.3221 3.69685 13.2576 3.76766 13.2136 3.86206C13.1695 3.95332 13.1475 4.06661 13.1475 4.20192C13.1475 4.34038 13.1758 4.46154 13.2324 4.56538C13.2922 4.66608 13.3772 4.74476 13.4873 4.8014C13.6006 4.85804 13.7344 4.88636 13.8886 4.88636C13.9956 4.88636 14.09 4.87063 14.1718 4.83916C14.2567 4.80769 14.348 4.7542 14.4456 4.67867L14.7996 5.17902C14.702 5.26399 14.5982 5.33322 14.488 5.38671C14.3779 5.44021 14.2646 5.47955 14.1482 5.50472C14.0349 5.53304 13.9216 5.5472 13.8083 5.5472Z" fill="white"/>
<defs>
<clipPath id="clip0_1245_1753">
<rect width="19.4373" height="19.4373" fill="white" transform="translate(2.28125 4.56299)"/>
</clipPath>
<clipPath id="clip1_1245_1753">
<rect width="16.6996" height="11.1331" fill="white" transform="translate(3.65039)"/>
</clipPath>
</defs>
</svg>
