<svg width="25" height="25" viewBox="0 0 25 25" fill="none" xmlns="http://www.w3.org/2000/svg">
<g clip-path="url(#clip0_1232_1707)">
<path d="M12.5004 24.1531C17.6761 24.1531 21.8718 19.9573 21.8718 14.7816C21.8718 9.6059 17.6761 5.41016 12.5004 5.41016C7.32465 5.41016 3.12891 9.6059 3.12891 14.7816C3.12891 19.9573 7.32465 24.1531 12.5004 24.1531Z" fill="#F7B239"/>
<path d="M7.57665 19.7052C4.20543 16.334 3.9398 11.0334 6.77946 7.35791C6.46489 7.60091 6.16225 7.86654 5.87369 8.15507C2.21398 11.8148 2.21398 17.7483 5.87369 21.4081C9.5334 25.0678 15.467 25.0678 19.1267 21.4081C19.4152 21.1196 19.6808 20.8168 19.9239 20.5023C16.2484 23.342 10.9478 23.0764 7.57665 19.7052Z" fill="#E09B2D"/>
<path d="M12.4999 24.5002C7.14101 24.5002 2.78125 20.1405 2.78125 14.7817C2.78125 9.42274 7.14101 5.06299 12.4999 5.06299C17.8588 5.06299 22.2185 9.42274 22.2185 14.7817C22.2185 20.1405 17.8588 24.5002 12.4999 24.5002ZM12.4999 5.75768C7.52409 5.75768 3.47594 9.80579 3.47594 14.7817C3.47594 19.7575 7.52406 23.8056 12.4999 23.8056C17.4757 23.8056 21.5238 19.7574 21.5238 14.7817C21.5238 9.80583 17.4757 5.75768 12.4999 5.75768Z" fill="black"/>
<path d="M12.4999 17.0008C10.9241 17.0008 9.34825 16.401 8.14861 15.2013C8.01296 15.0657 8.01296 14.8458 8.14861 14.7101C8.28425 14.5745 8.50421 14.5745 8.63982 14.7101C10.7683 16.8386 14.2315 16.8385 16.3599 14.7101C16.4956 14.5745 16.7155 14.5745 16.8511 14.7101C16.9868 14.8458 16.9868 15.0657 16.8511 15.2013C15.6515 16.401 14.0757 17.0008 12.4999 17.0008Z" fill="black"/>
<path d="M12.5004 18.5071C11.9403 18.5071 11.3802 18.4308 10.8357 18.2781C10.651 18.2263 10.5432 18.0346 10.595 17.8499C10.6468 17.6652 10.8387 17.5574 11.0232 17.6092C11.9896 17.8801 13.0112 17.8801 13.9776 17.6092C14.1623 17.5573 14.354 17.6652 14.4058 17.8499C14.4576 18.0346 14.3499 18.2263 14.1651 18.2781C13.6205 18.4308 13.0604 18.5071 12.5004 18.5071Z" fill="#E09B2D"/>
<path d="M10.1129 12.7562C9.92112 12.7562 9.76558 12.6007 9.76558 12.4088C9.76558 11.4766 9.00715 10.7181 8.07488 10.7181C7.14262 10.7181 6.38418 11.4766 6.38418 12.4088C6.38418 12.6007 6.22865 12.7562 6.03682 12.7562C5.84499 12.7562 5.68945 12.6007 5.68945 12.4088C5.68945 11.0935 6.75953 10.0234 8.07485 10.0234C9.39016 10.0234 10.4602 11.0935 10.4602 12.4088C10.4603 12.6007 10.3048 12.7562 10.1129 12.7562Z" fill="black"/>
<path d="M18.9626 12.7562C18.7707 12.7562 18.6152 12.6007 18.6152 12.4088C18.6152 11.4766 17.8568 10.7181 16.9245 10.7181C15.9922 10.7181 15.2338 11.4766 15.2338 12.4088C15.2338 12.6007 15.0783 12.7562 14.8864 12.7562C14.6946 12.7562 14.5391 12.6007 14.5391 12.4088C14.5391 11.0935 15.6091 10.0234 16.9245 10.0234C18.2398 10.0234 19.3098 11.0935 19.3098 12.4088C19.3099 12.6007 19.1544 12.7562 18.9626 12.7562Z" fill="black"/>
</g>
<g clip-path="url(#clip1_1232_1707)">
<path d="M5.99528 7.86901C6.08705 7.83159 6.18089 7.7906 6.27699 7.74863C6.39998 7.69491 6.52668 7.63958 6.65745 7.58804C8.43258 6.88979 10.3727 6.59027 12.37 6.5912C14.0794 6.59213 15.8361 6.86939 17.4085 7.32562C17.5358 7.36271 18.6768 7.71694 18.7965 7.82265C18.6783 7.80619 18.4989 7.75063 18.3313 7.69868C18.2344 7.66867 18.1414 7.63985 18.0664 7.6205C14.4956 6.70433 10.9885 6.52722 7.37677 7.45544L5.99528 7.86994V7.86901Z" fill="#370063"/>
<path fill-rule="evenodd" clip-rule="evenodd" d="M6.27699 7.74863C6.18089 7.7906 6.08705 7.83159 5.99528 7.86901V7.86994L7.37677 7.45544C10.9885 6.52722 14.4956 6.70433 18.0664 7.6205C18.1414 7.63985 18.2344 7.66867 18.3313 7.69868C18.4989 7.75063 18.6783 7.80619 18.7965 7.82265C18.6768 7.71694 17.5358 7.36271 17.4085 7.32562C15.8361 6.86939 14.0794 6.59213 12.37 6.5912C10.3727 6.59027 8.43258 6.88979 6.65745 7.58804C6.52668 7.63958 6.39998 7.69491 6.27699 7.74863ZM20.6353 9.84322L20.6557 9.85527V9.85342L20.8089 10.6175L20.8095 10.6215C20.8482 10.8794 20.8934 11.1806 20.7604 11.3937C20.6245 11.6106 20.3344 11.6811 20.0098 11.593C19.7197 11.5142 19.5525 11.3686 19.3918 11.2286C18.8493 10.7547 18.2476 10.4348 17.5487 10.126C17.4752 10.0935 17.3591 10.0521 17.2397 10.0096C17.077 9.95163 16.9084 9.89157 16.8337 9.84878L16.6989 9.82375L16.2675 9.68558C15.6847 9.53523 15.5741 9.49188 15.4596 9.46468C15.3412 9.43653 15.2186 9.42569 14.5636 9.33135L14.5496 9.32579C13.0095 9.16259 12.288 9.09026 10.6876 9.29333C8.77445 9.53536 7.01118 10.089 5.64154 11.1934C5.60689 11.2212 5.57456 11.2488 5.54282 11.2759C5.40865 11.3903 5.28505 11.4957 5.04085 11.5745C4.73025 11.6746 4.42613 11.6385 4.27083 11.4474C3.9322 11.0329 4.39809 9.62438 4.56309 9.20895C4.76743 8.69317 4.89491 8.49312 5.15913 8.07849C5.1766 8.05107 5.19467 8.02271 5.2134 7.99327C5.26057 7.91869 5.22937 7.62487 5.20539 7.39902C5.19538 7.30475 5.18663 7.22231 5.18536 7.17261C5.15408 5.87904 5.41938 4.52983 6.07077 3.47642C6.56793 2.67153 7.21393 2.07621 8.07669 1.63482C9.06563 1.12945 10.0255 0.968096 11.3908 0.892985L11.5669 0.787171C11.6186 0.753009 11.6925 0.71902 11.8038 0.68702C12.2223 0.567399 12.7496 0.56369 13.1724 0.682383C13.2907 0.715756 13.365 0.744552 13.421 0.782354L13.5951 0.895767C16.0033 0.923586 17.6846 1.78968 18.6692 3.10272C19.1837 3.78799 19.505 4.59845 19.6819 5.51276C19.7768 6.0033 19.8135 6.51424 19.8081 7.03074C19.8048 7.29409 19.793 7.55559 19.7596 7.80781C19.7391 7.96257 19.8064 8.04962 19.8826 8.14804C19.9347 8.21532 19.9909 8.28791 20.0259 8.39108L20.0594 8.42724C20.0823 8.49271 20.125 8.56795 20.1664 8.64098C20.1913 8.68483 20.2157 8.72789 20.2352 8.76756C20.2471 8.79229 20.2602 8.81884 20.2738 8.8463C20.3151 8.93002 20.3607 9.02226 20.3915 9.09767C20.4584 9.26181 20.6223 9.68372 20.6353 9.84322Z" fill="#672F93"/>
<path d="M13.5951 0.895767C13.4819 0.712163 13.4388 0.660235 13.1724 0.585124C12.7496 0.46643 12.2223 0.47014 11.8038 0.58976C11.4555 0.689908 11.4738 0.809529 11.3908 0.892985L11.5669 0.787171C11.6186 0.753009 11.6925 0.71902 11.8038 0.68702C12.2223 0.567399 12.7496 0.56369 13.1724 0.682383C13.2907 0.715756 13.365 0.744552 13.421 0.782354L13.5951 0.895767Z" fill="#370063"/>
</g>
<path d="M11.513 6.05192C11.3997 6.05192 11.2911 6.03619 11.1873 6.00472C11.0834 5.97325 10.989 5.93077 10.904 5.87727C10.8222 5.82378 10.753 5.76241 10.6963 5.69318C10.6428 5.6208 10.6067 5.54685 10.5878 5.47133L10.753 5.41469L10.7105 5.99528H10.0072V2.50699H10.7671V4.09301L10.6114 4.03636C10.6303 3.95455 10.6665 3.87902 10.7199 3.80979C10.7734 3.73741 10.8411 3.67448 10.9229 3.62098C11.0047 3.56434 11.0944 3.52028 11.192 3.48881C11.2895 3.45734 11.3902 3.44161 11.4941 3.44161C11.7112 3.44161 11.9032 3.49825 12.0699 3.61154C12.2399 3.72168 12.3736 3.87587 12.4712 4.07413C12.5687 4.26923 12.6175 4.49266 12.6175 4.74441C12.6175 4.9993 12.5687 5.22587 12.4712 5.42413C12.3768 5.61923 12.2462 5.77343 12.0794 5.88671C11.9126 5.99685 11.7238 6.05192 11.513 6.05192ZM11.3147 5.41469C11.428 5.41469 11.5271 5.38636 11.6121 5.32972C11.697 5.27308 11.7616 5.19598 11.8056 5.09843C11.8528 4.99773 11.8764 4.87972 11.8764 4.74441C11.8764 4.61224 11.8528 4.4958 11.8056 4.3951C11.7616 4.29441 11.697 4.21731 11.6121 4.16381C11.5271 4.11031 11.428 4.08357 11.3147 4.08357C11.1983 4.08357 11.0976 4.11031 11.0126 4.16381C10.9276 4.21731 10.8616 4.29441 10.8144 4.3951C10.7671 4.4958 10.7435 4.61224 10.7435 4.74441C10.7435 4.87972 10.7671 4.99773 10.8144 5.09843C10.8616 5.19598 10.9276 5.27308 11.0126 5.32972C11.0976 5.38636 11.1983 5.41469 11.3147 5.41469ZM14.3083 6.0472C14.0314 6.0472 13.7907 5.99213 13.5861 5.88199C13.3816 5.76871 13.2227 5.61608 13.1094 5.42413C12.9961 5.22902 12.9394 5.00717 12.9394 4.75857C12.9394 4.56661 12.9709 4.39038 13.0338 4.22989C13.0968 4.06941 13.1849 3.93094 13.2982 3.81451C13.4115 3.69493 13.5452 3.60367 13.6994 3.54073C13.8567 3.47465 14.0282 3.44161 14.2139 3.44161C14.3901 3.44161 14.5506 3.47308 14.6954 3.53601C14.8433 3.59895 14.9707 3.68706 15.0777 3.80035C15.1847 3.91364 15.2665 4.04738 15.3232 4.20157C15.3798 4.35577 15.405 4.52413 15.3987 4.70664L15.394 4.90962H13.3973L13.2887 4.48479H14.7803L14.7001 4.57448V4.48007C14.6938 4.4014 14.6686 4.33217 14.6246 4.27238C14.5837 4.20944 14.5286 4.16066 14.4594 4.12605C14.3901 4.09143 14.3115 4.07413 14.2234 4.07413C14.1006 4.07413 13.9952 4.0993 13.9071 4.14965C13.8221 4.19685 13.7576 4.26766 13.7136 4.36206C13.6695 4.45332 13.6475 4.56661 13.6475 4.70192C13.6475 4.84038 13.6758 4.96154 13.7324 5.06538C13.7922 5.16608 13.8772 5.24476 13.9873 5.3014C14.1006 5.35804 14.2344 5.38636 14.3886 5.38636C14.4956 5.38636 14.59 5.37063 14.6718 5.33916C14.7567 5.30769 14.848 5.2542 14.9456 5.17867L15.2996 5.67902C15.202 5.76399 15.0982 5.83322 14.988 5.88671C14.8779 5.94021 14.7646 5.97955 14.6482 6.00472C14.5349 6.03304 14.4216 6.0472 14.3083 6.0472Z" fill="white"/>
<defs>
<clipPath id="clip0_1232_1707">
<rect width="19.4373" height="19.4373" fill="white" transform="translate(2.78125 5.06299)"/>
</clipPath>
<clipPath id="clip1_1232_1707">
<rect width="16.6996" height="11.1331" fill="white" transform="translate(4.15039 0.5)"/>
</clipPath>
</defs>
</svg>
